<?xml version="1.0" standalone="no"?>
<!DOCTYPE svg PUBLIC "-//W3C//DTD SVG 20010904//EN"
 "http://www.w3.org/TR/2001/REC-SVG-20010904/DTD/svg10.dtd">
<svg version="1.0" xmlns="http://www.w3.org/2000/svg"
 width="884.000000pt" height="884.000000pt" viewBox="0 0 884.000000 884.000000"
 preserveAspectRatio="xMidYMid meet">
<metadata>
Created by potrace 1.11, written by Peter Selinger 2001-2013
</metadata>
<g transform="translate(0.000000,884.000000) scale(0.100000,-0.100000)"
fill="#000000" stroke="none">
<path d="M376 4407 c1 -2217 2 -4037 3 -4043 1 -7 356 -10 1206 -10 1081 0
1205 1 1211 15 9 23 10 121 1 121 -4 0 -4 8 0 17 5 10 7 32 5 48 -3 38 -3 47
0 118 2 32 0 61 -4 63 -5 3 -5 11 -1 17 10 16 10 48 0 70 -4 9 -4 17 0 17 10
0 10 41 0 57 -4 7 -4 14 0 16 10 6 9 59 -1 75 -4 7 -3 12 1 12 10 0 10 41 0
57 -4 7 -4 14 0 16 10 6 9 59 -1 75 -4 7 -4 17 0 23 10 17 11 119 1 119 -4 0
-4 8 0 17 5 10 7 32 5 48 -4 41 -4 55 0 93 2 17 0 32 -5 32 -4 0 -5 5 -1 11
10 17 11 119 1 119 -4 0 -4 8 0 17 5 10 7 32 5 48 -4 41 -4 55 0 92 2 18 0 33
-5 33 -4 0 -5 5 -1 11 10 17 11 119 1 119 -4 0 -4 8 0 17 5 10 7 32 5 48 -4
41 -4 55 0 93 2 17 0 32 -5 32 -4 0 -5 5 -1 11 10 17 11 119 1 119 -4 0 -4 8
0 18 5 9 7 31 5 47 -4 41 -4 55 0 93 2 17 0 32 -5 32 -4 0 -5 5 -1 11 10 17
11 119 1 119 -4 0 -4 8 0 18 5 9 7 31 5 47 -4 41 -4 55 0 93 2 17 0 32 -5 32
-4 0 -5 5 -1 11 10 17 11 119 1 119 -4 0 -4 8 0 18 5 9 7 31 5 47 -4 41 -4 55
0 93 2 17 0 32 -5 32 -4 0 -5 5 -1 11 10 17 11 119 1 119 -4 0 -4 8 0 17 5 10
7 32 5 48 -4 41 -4 55 0 93 2 17 0 32 -5 32 -4 0 -5 5 -1 11 10 17 11 119 1
119 -4 0 -4 8 0 18 5 9 7 31 5 47 -3 36 -3 44 1 115 1 30 -1 60 -6 67 -4 6 -4
14 1 17 4 2 7 20 4 38 -4 38 -4 42 0 121 2 31 0 57 -5 57 -4 0 -4 8 0 18 5 9
7 31 5 47 -3 38 -3 47 0 118 2 32 0 61 -4 63 -5 3 -5 11 -1 17 10 16 10 48 0
70 -4 9 -4 17 0 17 10 0 10 41 0 57 -4 7 -4 14 0 16 10 6 9 59 -1 75 -4 7 -3
12 1 12 10 0 10 41 0 57 -4 7 -4 14 0 16 10 6 9 59 -1 75 -4 7 -3 12 1 12 10
0 10 41 0 57 -4 7 -4 14 1 17 5 3 7 20 4 38 -4 38 -4 42 0 121 2 31 0 57 -5
57 -4 0 -4 8 0 18 5 9 7 31 5 47 -3 38 -3 47 0 118 2 32 0 61 -4 63 -5 3 -5
11 -1 17 10 16 10 48 0 70 -4 9 -4 17 0 17 10 0 10 41 0 57 -4 7 -4 14 0 16
10 6 9 59 -1 75 -4 7 -3 12 1 12 10 0 10 41 0 57 -4 7 -4 14 0 16 10 6 9 59
-1 75 -4 7 -3 12 1 12 10 0 10 41 0 57 -4 7 -4 14 1 17 5 3 7 20 4 38 -4 38
-4 42 0 121 2 31 0 57 -5 57 -4 0 -4 8 0 18 5 9 7 31 5 47 -3 38 -3 47 0 118
2 32 0 61 -4 63 -5 3 -5 11 -1 17 10 16 10 48 0 70 -4 9 -4 17 0 17 10 0 10
41 0 57 -4 7 -4 14 1 17 5 3 7 20 4 38 -4 38 -4 42 0 121 2 31 0 57 -5 57 -4
0 -4 8 0 18 5 9 7 31 5 47 -3 38 -3 47 0 118 2 32 0 61 -4 63 -5 3 -5 11 -1
17 10 16 10 48 0 70 -4 9 -4 17 0 17 10 0 10 41 0 57 -4 7 -4 14 0 16 10 6 9
59 -1 75 -4 7 -4 12 1 12 7 0 8 26 4 85 -1 12 -58 43 -476 260 -82 43 -165 86
-182 97 -18 11 -33 16 -33 11 0 -4 -4 -3 -8 3 -6 10 -69 47 -82 49 -3 0 -9 3
-15 7 -17 10 -268 141 -302 157 -18 8 -33 19 -33 23 0 4 -8 8 -18 8 -10 0 -22
4 -27 9 -6 4 -77 43 -160 86 -82 43 -193 100 -245 128 -206 107 -319 167 -420
219 -58 30 -175 92 -261 137 -86 44 -158 81 -160 81 -2 0 -3 -1815 -3 -4033z"/>
<path d="M8325 8374 c-66 -35 -154 -81 -195 -101 -41 -21 -77 -40 -80 -43 -3
-3 -36 -22 -75 -41 -208 -105 -260 -133 -263 -141 -2 -4 -9 -8 -15 -8 -7 0
-23 -6 -37 -13 -14 -7 -59 -31 -100 -52 -41 -21 -82 -44 -90 -51 -8 -7 -18
-13 -22 -14 -33 -7 -48 -13 -48 -19 0 -4 -16 -13 -35 -20 -19 -7 -35 -17 -35
-23 0 -6 -3 -9 -6 -5 -3 3 -40 -13 -82 -35 -43 -23 -129 -68 -192 -101 -63
-32 -162 -84 -220 -115 -156 -83 -154 -82 -167 -82 -6 0 -13 -3 -15 -7 -3 -9
-6 -10 -243 -133 -93 -49 -215 -112 -270 -141 l-100 -52 1 -3406 c1 -1873 2
-3409 3 -3412 0 -3 544 -5 1209 -5 l1207 1 2 4037 c2 2220 -1 4039 -5 4041 -4
2 -61 -24 -127 -59z"/>
<path d="M3150 3712 l0 -3359 1268 1 1267 1 0 3358 c1 3323 1 3357 -19 3351
-10 -4 -41 -19 -68 -35 -27 -16 -53 -29 -57 -29 -5 0 -14 -7 -21 -15 -7 -8
-16 -13 -20 -10 -5 3 -11 1 -14 -4 -3 -5 -25 -19 -48 -31 -75 -39 -249 -133
-318 -172 -25 -14 -81 -45 -125 -68 -44 -24 -95 -52 -115 -63 -19 -11 -69 -38
-110 -59 -41 -22 -78 -45 -82 -51 -4 -7 -8 -9 -8 -5 0 4 -27 -9 -61 -28 -33
-18 -65 -34 -70 -34 -5 0 -9 -5 -9 -12 0 -6 -3 -9 -6 -5 -3 3 -27 -7 -54 -23
-26 -15 -52 -25 -56 -20 -5 4 -61 35 -124 68 -223 116 -336 176 -414 219 -43
23 -82 43 -85 43 -4 0 -28 13 -54 30 -26 16 -47 27 -47 24 0 -4 -6 -1 -13 5
-8 6 -38 24 -68 39 -351 186 -458 242 -463 242 -3 0 -6 -1511 -6 -3358z"/>
</g>
</svg>
