<svg xmlns="http://www.w3.org/2000/svg" viewBox="0 0 48 48" style="enable-background:new 0 0 48 48"><g><path d="M36 35.5c0 .275-.225.5-.5.5h-23a.501.501 0 0 1-.5-.5s.019-10.651.033-10.693l3.723-11.316c.088-.269.387-.49.665-.49H27v3h-9.063l-3.032 9H19l2 5h6l2-5h4.095l-1.347-4h2.973l1.246 3.807C35.98 24.849 36 35.5 36 35.5zM34 9c-2.761 0-5 2.016-5 5 0 3.206 2.239 5 5 5 2.762 0 5-2.238 5-5s-2.238-5-5-5zm3 5.5c0 .275-.225.5-.5.5H35v1.5c0 .275-.225.5-.5.5h-1a.501.501 0 0 1-.5-.5V15h-1.5a.501.501 0 0 1-.5-.5v-1c0-.275.225-.5.5-.5H33v-1.5c0-.275.225-.5.5-.5h1c.275 0 .5.225.5.5V13h1.5c.275 0 .5.225.5.5v1z"/></g></svg>