<?xml version="1.0" encoding="utf-8"?><svg xmlns="http://www.w3.org/2000/svg" viewBox="0 0 48 48" style="enable-background:new 0 0 48 48"><path d="M11 17v14a1 1 0 0 1-1-1V18a1 1 0 0 1 1-1zM37 17v14a1 1 0 0 0 1-1V18a1 1 0 0 0-1-1zM13 16h1v16h-1a1 1 0 0 1-1-1V17a1 1 0 0 1 1-1zM35 16h-1v16h1a1 1 0 0 0 1-1V17a1 1 0 0 0-1-1zM32 15H16c-.55 0-1 .45-1 1v16c0 .55.45 1 1 1h16c.55 0 1-.45 1-1V16c0-.55-.45-1-1-1zm-3 12c0 1.469-2.022 1.71-2.301 1.71-.846 0-1.55-.395-1.752-1.02-.276-.852.461-1.796 1.607-2.218.649-.238 1.446-.155 1.446-.146v-4.407l-6 1.369V28c0 1.813-2.102 2.057-2.417 2.057-.816 0-1.44-.374-1.629-.955-.271-.835.441-1.77 1.603-2.174.646-.225 1.443-.137 1.443-.131v-6.604c0-.245.072-.469.291-.529l7.491-1.854-.039-.01c.218 0 .257.169.257.393V27z"/></svg>