<svg height="1024" width="768" xmlns="http://www.w3.org/2000/svg"><path d="M384 960C171.969 960 0 902.625 0 832V704c0-11.125 5.562-21.688 13.562-32C56.375 727.125 205.25 768 384 768s327.625-40.875 370.438-96c8 10.312 13.562 20.875 13.562 32v128c0 70.625-172 128-384 128zm0-256C171.969 704 0 646.625 0 576V448c0-6.781 2.562-13.375 6-19.906C7.938 424 10.5 419.969 13.562 416 56.375 471.094 205.25 512 384 512s327.625-40.906 370.438-96c3.062 3.969 5.625 8 7.562 12.094 3.438 6.531 6 13.125 6 19.906v128c0 70.625-172 128-384 128zm0-256C171.969 448 0 390.656 0 320v-64-64C0 121.344 171.969 64 384 64c212 0 384 57.344 384 128v128c0 70.656-172 128-384 128zm0-320c-141.375 0-256 28.594-256 64s114.625 64 256 64 256-28.594 256-64-114.625-64-256-64z"/></svg>