<?xml version="1.0" encoding="utf-8"?><svg xmlns="http://www.w3.org/2000/svg" viewBox="0 0 1000 1000"><path d="M763.8 839.2c0-10.2-3.7-19-11.2-26.5-7.5-7.5-16.3-11.2-26.5-11.2s-19 3.7-26.5 11.2c-7.5 7.5-11.2 16.3-11.2 26.5s3.7 19 11.2 26.5c7.5 7.5 16.3 11.2 26.5 11.2s19-3.7 26.5-11.2c7.5-7.4 11.2-16.3 11.2-26.5zm150.8 0c0-10.2-3.7-19-11.2-26.5-7.5-7.5-16.3-11.2-26.5-11.2s-19 3.7-26.5 11.2c-7.5 7.5-11.2 16.3-11.2 26.5s3.7 19 11.2 26.5c7.5 7.5 16.3 11.2 26.5 11.2s19-3.7 26.5-11.2c7.5-7.4 11.2-16.3 11.2-26.5zM990 707.3v188.5c0 15.7-5.5 29.1-16.5 40s-24.3 16.5-40 16.5h-867c-15.7 0-29.1-5.5-40-16.5-11-11-16.5-24.3-16.5-40V707.3c0-15.7 5.5-29.1 16.5-40 11-11 24.3-16.5 40-16.5h273.9l79.5 80.1c22.8 22 49.5 33 80.1 33 30.6 0 57.3-11 80.1-33l80.1-80.1h273.3c15.7 0 29.1 5.5 40 16.5 11 11 16.5 24.3 16.5 40zM798.6 372.2c6.7 16.1 3.9 29.8-8.2 41.2L526.5 677.3c-7.1 7.5-15.9 11.2-26.5 11.2s-19.4-3.7-26.5-11.2L209.7 413.4c-12.2-11.4-14.9-25.1-8.2-41.2 6.7-15.3 18.3-23 34.7-23H387V85.4c0-10.2 3.7-19 11.2-26.5 7.5-7.5 16.3-11.2 26.5-11.2h150.8c10.2 0 19 3.7 26.5 11.2 7.5 7.5 11.2 16.3 11.2 26.5v263.8H764c16.3 0 27.9 7.7 34.6 23z"/></svg>