<?xml version="1.0" encoding="utf-8"?><svg xmlns="http://www.w3.org/2000/svg" viewBox="0 0 48 48" style="enable-background:new 0 0 48 48"><path d="M16.516 20.688C16.266 21.25 12 31.906 12 31.906V17c0-.55.45-1 1-1h1.334l.35-1.052C14.857 14.427 15.45 14 16 14h5c.55 0 1.143.427 1.316.948l.35 1.052H32c.55 0 1 .45 1 1v3H17.5c-.275 0-.734.125-.984.688zM41 21H19c-.55 0-1.167.418-1.371.929l-5.258 13.143c-.204.51.079.928.629.928h22c.55 0 1.167-.418 1.371-.929l5.258-13.143c.204-.51-.079-.928-.629-.928z"/></svg>