<?xml version="1.0" encoding="utf-8"?><svg xmlns="http://www.w3.org/2000/svg" viewBox="0 0 1000 1000"><path d="M611.4 34.4c92-46.8 206.7-25.7 276.3 58.1 66.9 80.5 71.4 193.8 18.5 278.4-13.2.1-27-2.3-41.2-6.6-56-17.1-114.7-64.1-161.8-122.1-47.3-58.2-82-126-90.1-184.6-1-8-1.6-15.7-1.7-23.2zM146.8 678c-.7 41.6 19.8 64.6 59 71l431.9-297.1C578.1 413.3 527.3 349.7 501 282.7L146.8 678zm14.1 94.3c-35.9 38.4-46.8 78.1-38.3 107.7 3.5 12.1 10.4 22.5 20.2 30.3 10.4 8.3 24.5 13.8 41.6 15.3 58.5 5.1 146-33.6 248.3-150.9 102.8-118 195.4-173.9 271.3-187.5 45.9-8.2 86.3-1.4 119.7 16.6 33.4 18 59.4 47 76.7 83.1 27 56.4 32.6 130.2 12 205.2l-60-17.2c16.3-59.8 12.6-117.4-7.9-160-11.5-24-28.4-43.1-49.8-54.6-21.5-11.5-48.3-15.8-79.9-10.1-63.2 11.4-143 61-235.4 167-117.5 134.9-224.8 178.7-300 172.2-29.6-2.6-54.8-12.8-74.6-28.4-20.4-16.1-34.7-37.9-41.9-63.2-14.3-50.1.3-113.2 53.1-169.7l44.9 44.2zM871.5 412c-69.8-23.6-139.6-79.4-194.4-146.8-49.9-61.3-88.3-133.3-103.8-200.3-41 51.7-57.7 118-48.6 181.6 25.1 77.2 90.1 157.1 162.7 191.2 60.8 18 127.9 10 184.1-25.7z"/></svg>