<svg x="0" y="0" version="1.1" xmlns="http://www.w3.org/2000/svg" xmlns:xlink="http://www.w3.org/1999/xlink" viewBox="0 0 26 26" width="28" height="28" style="fill: rgb(255, 255, 255);"><g fill="none" stroke="none" stroke-width="1" stroke-linecap="butt" stroke-linejoin="miter" stroke-miterlimit="10" stroke-dasharray="" stroke-dashoffset="0" font-family="sans-serif" font-weight="normal" font-size="12" text-anchor="start" mix-blend-mode="normal"><g><g><path d="M0,26l0,-26l26,0l0,26z" fill="none"/><g fill="#ffffff"><path d="M20.208,11.857l-13.306,-6.597c-0.403,-0.203 -0.884,-0.181 -1.268,0.052c-0.386,0.232 -0.619,0.646 -0.619,1.09l0,13.198c0,0.443 0.233,0.856 0.619,1.089c0.208,0.126 0.444,0.19 0.683,0.19c0.201,0 0.401,-0.046 0.586,-0.138l13.306,-6.599c0.438,-0.218 0.716,-0.658 0.716,-1.143c0,-0.485 -0.279,-0.924 -0.717,-1.142z"/></g></g></g></g></svg>
