<?xml version="1.0" encoding="utf-8"?><svg xmlns="http://www.w3.org/2000/svg" viewBox="0 0 48 48" style="enable-background:new 0 0 48 48"><path d="M37.192 23.032c-.847.339-.179-.339-.179-.339s1.422-2.092.406-3.786c-.793-1.321-3.338-1.075-4.42-1.669v14.154c0 .037-.016.07-.022.106-.154 1.504-1.607 3.034-3.696 3.712-2.559.829-5.102.063-5.678-1.711-.574-1.774 1.034-3.887 3.595-4.717.66-.189 2.207-.439 2.801-.193V12.607a.609.609 0 0 1 .608-.607h1.785c.336 0 .608.273.608.607v.549c1.542 1.004 6.18 1.455 6.851 4.139.805 3.225-1.813 5.398-2.659 5.737zM12.5 20H28v-3H12.5c-.275 0-.5.225-.5.5v2c0 .275.225.5.5.5zm0 6H28v-3H12.5c-.275 0-.5.225-.5.5v2c0 .275.225.5.5.5zm10.125 3H12.5c-.275 0-.5.225-.5.5v2c0 .275.225.5.5.5h8.551c.176-1.075.728-2.113 1.574-3z"/></svg>