<svg xmlns="http://www.w3.org/2000/svg" viewBox="11 11 26 26" style="enable-background:new 0 0 48 48"><g fill="#C33"><path d="M32.662 15.338c-4.784-4.784-12.54-4.784-17.324 0s-4.784 12.54 0 17.324 12.54 4.784 17.324 0c4.783-4.784 4.784-12.54 0-17.324zm-5.127 14.318a.5.5 0 0 1-.707 0L24 26.828l-2.828 2.828a.5.5 0 0 1-.707 0l-2.121-2.121a.5.5 0 0 1 0-.707L21.172 24l-2.828-2.828a.5.5 0 0 1 0-.707l2.121-2.121a.5.5 0 0 1 .707 0L24 21.172l2.828-2.828a.5.5 0 0 1 .707 0l2.121 2.121a.5.5 0 0 1 0 .707L26.828 24l2.828 2.828a.5.5 0 0 1 0 .707l-2.121 2.121z"/></g></svg>