<svg xmlns="http://www.w3.org/2000/svg" xmlns:xlink="http://www.w3.org/1999/xlink" version="1.1" x="0px" y="0px" viewBox="0 0 65 65" enable-background="new 0 0 65 65" xml:space="preserve"><g><path d="M36.1,14.4c-1.4-1.4-3.9-1.4-5.3,0L1.1,44.1c-1.4,1.4-1.4,3.8,0,5.3l14.5,14.5c0.7,0.7,1.6,1.1,2.6,1.1   c1,0,1.9-0.4,2.6-1.1l29.7-29.7c1.5-1.4,1.5-3.8,0-5.3L36.1,14.4z M49.5,33.2L19.8,62.9c-0.8,0.8-2.3,0.8-3.2,0L2.1,48.3   c-0.9-0.9-0.9-2.3,0-3.2l29.7-29.7c0.4-0.4,1-0.7,1.6-0.7c0.6,0,1.2,0.2,1.6,0.7L49.5,30C50.4,30.9,50.4,32.3,49.5,33.2z"></path><rect x="32.4" y="19.5" transform="matrix(0.707 0.7072 -0.7072 0.707 24.3992 -18.4628)" width="4.2" height="1.5"></rect><rect x="42.7" y="29.8" transform="matrix(-0.7072 -0.707 0.707 -0.7072 54.8735 83.7577)" width="4.2" height="1.5"></rect><rect x="14.7" y="37.1" transform="matrix(0.7071 0.7071 -0.7071 0.7071 31.7025 -0.8228)" width="4.2" height="1.5"></rect><rect x="25" y="47.4" transform="matrix(-0.7071 -0.7071 0.7071 -0.7071 12.2855 101.3977)" width="4.2" height="1.5"></rect><rect x="19.9" y="42.3" transform="matrix(0.7071 0.7071 -0.7071 0.7071 36.8513 -2.9555)" width="4.2" height="1.5"></rect><rect x="11.7" y="40.2" transform="matrix(0.7071 0.7071 -0.7071 0.7071 32.9629 2.2207)" width="4.2" height="1.5"></rect><rect x="22" y="50.5" transform="matrix(-0.707 -0.7072 0.7072 -0.707 4.9277 104.4377)" width="4.2" height="1.5"></rect><rect x="16.8" y="45.3" transform="matrix(0.7071 0.7071 -0.7071 0.7071 38.1117 8.766792e-002)" width="4.2" height="1.5"></rect><rect x="8.6" y="43.2" transform="matrix(0.7071 0.7071 -0.7071 0.7071 34.2235 5.2638)" width="4.2" height="1.5"></rect><rect x="18.9" y="53.5" transform="matrix(-0.7072 -0.707 0.707 -0.7072 -2.4064 107.4868)" width="4.2" height="1.5"></rect><rect x="13.8" y="48.3" transform="matrix(-0.707 -0.7072 0.7072 -0.707 -7.5673 95.0498)" width="4.2" height="1.5"></rect><rect x="10.8" y="51.4" transform="matrix(-0.7072 -0.707 0.707 -0.7072 -14.9034 98.0997)" width="4.2" height="1.5"></rect><path d="M35.4,38.8c-1.1,1.1-2.4,1.7-3.9,1.9l0.2,1.5c1.8-0.2,3.5-1,4.8-2.3c1.3-1.3,2.1-3,2.3-4.8l-1.5-0.2   C37.1,36.4,36.5,37.8,35.4,38.8z"></path><path d="M31.7,26.2l-0.2,1.5c1.5,0.2,2.8,0.8,3.9,1.9c1.1,1.1,1.7,2.4,1.9,3.9l1.5-0.2c-0.2-1.8-1-3.5-2.3-4.8   C35.2,27.2,33.5,26.4,31.7,26.2z"></path><path d="M26.2,29.6c1.1-1.1,2.4-1.7,3.9-1.9l-0.2-1.5c-1.8,0.2-3.5,1-4.8,2.3c-1.3,1.3-2.1,3-2.3,4.8l1.5,0.2   C24.5,32,25.1,30.6,26.2,29.6z"></path><path d="M24.3,34.9l-1.5,0.2c0.2,1.8,1,3.5,2.3,4.8c1.3,1.3,3,2.1,4.8,2.3l0.2-1.5c-1.5-0.2-2.9-0.8-3.9-1.9   C25.1,37.8,24.5,36.4,24.3,34.9z"></path><path d="M43.4,0v1.5c11.1,0,20.1,9,20.1,20.1H65C65,9.7,55.3,0,43.4,0z"></path><path d="M43.4,7.4v1.5c7,0,12.7,5.7,12.7,12.7h1.5C57.6,13.8,51.2,7.4,43.4,7.4z"></path><path d="M48.6,21.6h1.5c0-3.7-3-6.7-6.7-6.7v1.5C46.3,16.4,48.6,18.7,48.6,21.6z"></path></g></svg>