<svg xmlns="http://www.w3.org/2000/svg" width="25" height="25" viewBox="0 0 50 50">
    <path d="M 40 0 C 34.536 0 30.079 4.39775 30 9.84375 C 29.999 9.89275 30 9.951 30 10 C 30 13.688 31.99675 16.891 34.96875 18.625 C 36.44575 19.49 38.167 20 40 20 C 45.514 20 50 15.514 50 10 C 50 4.486 45.514 0 40 0 z M 28.0625 10.84375 L 17.84375 15.96875 C 20.22275 18.03275 21.78375 20.99975 21.96875 24.34375 L 32.3125 19.15625 C 29.8965 17.12825 28.3005 14.17675 28.0625 10.84375 z M 10 15 C 4.486 15 0 19.486 0 25 C 0 30.514 4.486 35 10 35 C 12.051 35 13.94325 34.3765 15.53125 33.3125 C 18.21425 31.5205 20 28.471 20 25 C 20 21.411 18.09 18.264 15.25 16.5 C 13.72 15.546 11.931 15 10 15 z M 21.96875 25.65625 C 21.78475 28.99625 20.249 31.9975 17.875 34.0625 L 28.0625 39.15625 C 28.2995 35.82325 29.86925 32.87375 32.28125 30.84375 L 21.96875 25.65625 z M 40 30 C 37.937 30 36.0305 30.64475 34.4375 31.71875 C 31.7705 33.51475 30 36.543 30 40 C 30 40.015 30 40.01725 30 40.03125 C 29.956 40.03425 29.919 40.0595 29.875 40.0625 L 30 40.125 C 30.066 45.583 34.527 50 40 50 C 45.514 50 50 45.514 50 40 C 50 34.486 45.514 30 40 30 z"/>
</svg>