<svg xmlns="http://www.w3.org/2000/svg" version="1" viewBox="0 0 24 24" enable-background="new 0 0 24 24" width="25" height="25" style="fill: rgb(255, 255, 255);">
    <path d="M 17 2 L 17 5 L 14.1875 5 C 13.0875 5 12 5.5875 11.5 6.6875 L 6.59375 16.5 C 6.49375 16.8 6.1125 17 5.8125 17 L 2 17 L 2 19 L 5.8125 19 C 6.9125 19 8 18.4125 8.5 17.3125 L 13.40625 7.5 C 13.50625 7.2 13.8875 7 14.1875 7 L 17 7 L 17 10 L 22 6 L 17 2 z M 2 5 L 2 7 L 5.8125 7 C 6.1125 7 6.4875 7.19375 6.6875 7.59375 L 8.40625 10.90625 L 9.5 8.6875 L 8.5 6.6875 C 7.9 5.5875 6.9125 5 5.8125 5 L 2 5 z M 11.59375 13.09375 L 10.5 15.3125 L 11.5 17.3125 C 12 18.3125 12.9875 19 14.1875 19 L 17 19 L 17 22 L 22 18 L 17 14 L 17 17 L 14.1875 17 C 13.8875 17 13.5125 16.80625 13.3125 16.40625 L 11.59375 13.09375 z"/>
</svg>