<svg xmlns="http://www.w3.org/2000/svg" viewBox="0 0 1200 1200"><path fill="#F5A836" d="M50 599.999c0 303.744 246.246 549.99 549.989 549.99 303.785 0 550.011-246.246 550.011-549.99C1150 296.233 903.774 50.01 599.989 50.01 296.246 50.01 50 296.233 50 599.999z"/><path fill="#39414C" d="M671.027 410.286c31.749 19.852 54.013 53.574 58.044 92.642 12.928 6.092 27.325 9.578 42.596 9.578 55.593 0 100.645-45.073 100.645-100.73 0-55.591-45.052-100.706-100.645-100.706-55.152.087-99.807 44.283-100.64 99.216m-65.998 206.146c55.611 0 100.749-45.093 100.749-100.705 0-55.568-45.138-100.665-100.749-100.665-55.569 0-100.662 45.097-100.662 100.665 0 55.612 45.092 100.705 100.662 100.705m42.706 6.883H562.3c-71.084 0-128.886 57.823-128.886 128.886v104.541l.218 1.623 7.232 2.255c67.816 21.213 126.781 28.225 175.295 28.225 94.746 0 149.683-26.955 153.076-28.728l6.707-3.375h.723V752.201c0-71.063-57.827-128.886-128.93-128.886M814.33 519.32h-84.754c-.965 33.965-15.406 64.487-38.305 86.465 63.217 18.8 109.431 77.392 109.431 146.613v32.211c83.705-3.089 131.951-26.823 135.152-28.442l6.707-3.42h.744V648.273c0-71.106-57.826-128.953-128.975-128.953m-385.958-6.814c19.655 0 37.997-5.742 53.556-15.537 4.907-32.188 22.172-60.344 46.827-79.498.108-1.882.283-3.726.283-5.611 0-55.631-45.094-100.704-100.666-100.704-55.633 0-100.751 45.073-100.751 100.704.001 55.573 45.118 100.646 100.751 100.646m90.433 93.279c-22.766-21.846-37.249-52.261-38.279-85.942-3.159-.216-6.248-.523-9.468-.523h-85.455c-71.083 0-128.929 57.847-128.929 128.953v104.474l.26 1.644 7.188 2.301c54.474 17.026 103.075 24.829 145.234 27.238v-31.532c-.001-69.221 46.233-127.77 109.449-146.613"/></svg>