<svg x="0" y="0" version="1.1" xmlns="http://www.w3.org/2000/svg" xmlns:xlink="http://www.w3.org/1999/xlink" viewBox="0 0 26 26" width="28" height="28" style="fill: rgb(255, 255, 255);"><g fill="none" stroke="none" stroke-width="1" stroke-linecap="butt" stroke-linejoin="miter" stroke-miterlimit="10" stroke-dasharray="" stroke-dashoffset="0" font-family="sans-serif" font-weight="normal" font-size="12" text-anchor="start" mix-blend-mode="normal"><g><g><path d="M0,26l0,-26l26,0l0,26z" fill="none"/><g fill="#ffffff"><path d="M7,5c-0.551,0 -1,0.449 -1,1l0,14c0,0.551 0.449,1 1,1l3,0c0.551,0 1,-0.449 1,-1l0,-14c0,-0.551 -0.449,-1 -1,-1z M16,5c-0.551,0 -1,0.449 -1,1l0,14c0,0.551 0.449,1 1,1l3,0c0.551,0 1,-0.449 1,-1l0,-14c0,-0.551 -0.449,-1 -1,-1z"/></g></g></g></g></svg>
