<svg x="0" y="0" version="1.1" xmlns="http://www.w3.org/2000/svg" xmlns:xlink="http://www.w3.org/1999/xlink" viewBox="0 0 26 26" width="28" height="28" style="fill: rgb(255, 255, 255);"><g fill="none" stroke="none" stroke-width="1" stroke-linecap="butt" stroke-linejoin="miter" stroke-miterlimit="10" stroke-dasharray="" stroke-dashoffset="0" font-family="sans-serif" font-weight="normal" font-size="12" text-anchor="start" mix-blend-mode="normal"><g><g><path d="M0,26l0,-26l26,0l0,26z" fill="none"/><g fill="#ffffff"><path d="M7,5c-0.551,0 -1,0.449 -1,1l0,14c0,0.551 0.449,1 1,1l3,0c0.551,0 1,-0.449 1,-1l0,-4.875l7.09375,5.625c0.403,0.203 0.89725,0.1705 1.28125,-0.0625c0.386,-0.232 0.625,-0.64975 0.625,-1.09375l0,-13.1875c0,-0.443 -0.239,-0.86075 -0.625,-1.09375c-0.208,-0.126 -0.4485,-0.1875 -0.6875,-0.1875c-0.201,0 -0.40875,0.033 -0.59375,0.125l-7.09375,5.625l0,-4.875c0,-0.551 -0.449,-1 -1,-1z"/></g><g fill="none"/></g></g></g></svg>
