<svg xmlns:dc="http://purl.org/dc/elements/1.1/" xmlns:cc="http://creativecommons.org/ns#" xmlns:rdf="http://www.w3.org/1999/02/22-rdf-syntax-ns#" xmlns:svg="http://www.w3.org/2000/svg" xmlns="http://www.w3.org/2000/svg" xmlns:sodipodi="http://sodipodi.sourceforge.net/DTD/sodipodi-0.dtd" xmlns:inkscape="http://www.inkscape.org/namespaces/inkscape" version="1.1" x="0px" y="0px" viewBox="0 0 767.07654 687.68896" enable-background="new 0 0 2000 2000" xml:space="preserve"><path style="" d="m 735.72704,0 c -0.507,0 -1.014,0.01 -1.521,0.03 l -448.98404,0 c -48.23,0 -91.336,26.945 -112.465,70.298 -1.247,2.56 -2.103,5.208 -2.609,7.876 L 13.318,468.98099 c -0.222,0.549 -0.424,1.098 -0.613,1.652 -8.13,16.58 -12.705,35.208 -12.705,54.89 l 0,36.477 c 0,68.953 56.044,125.028 125.028,125.028 l 442.78704,0 c 0.424,0 0.842,-0.01 1.261,-0.03 2.176,0.464 4.364,0.691 6.554,0.691 12.408,0 24.131,-7.409 29.008,-19.63 L 764.82904,268.908 c 6.408,-16.004 -1.347,-34.227 -17.412,-40.635 -16.004,-6.595 -34.194,1.344 -40.6,17.379 l -152.052,378.86599 -429.73704,0 c -34.508,0 -62.514,-28.037 -62.514,-62.514 l 0,-36.477 c 0,-34.477 28.006,-62.513 62.514,-62.513 l 442.78704,0 c 0.718,0 1.426,-0.03 2.13,-0.08 0.114,0 0.22,-0.01 0.329,-0.02 6.974,-0.542 13.297,-3.358 18.233,-7.718 0.01,0 0.02,-0.02 0.03,-0.02 0,0 0.01,-0.01 0.01,-0.02 0.545,-0.483 1.076,-0.984 1.583,-1.503 0.06,-0.06 0.101,-0.113 0.154,-0.162 0.49,-0.506 0.961,-1.027 1.414,-1.564 0,-0.01 0.02,-0.02 0.03,-0.03 0,0 0,0 0.01,-0.01 0.475,-0.568 0.929,-1.151 1.365,-1.75 0.04,-0.05 0.07,-0.103 0.113,-0.152 1.493,-2.081 2.735,-4.352 3.683,-6.77 L 764.34804,44.079 c 1.359,-3.035 2.253,-6.326 2.578,-9.786 0,-0.07 0,-0.129 0.01,-0.195 0.05,-0.443 0.08,-0.886 0.09,-1.333 0,-0.102 0,-0.208 0,-0.312 0.01,-0.379 0.03,-0.76 0.03,-1.142 0,-6.266 -1.845,-12.093 -5.009,-16.981 -0.04,-0.08 -0.103,-0.161 -0.155,-0.241 -0.177,-0.267 -0.36,-0.529 -0.544,-0.79 -0.125,-0.176 -0.246,-0.355 -0.375,-0.53 -0.157,-0.214 -0.322,-0.423 -0.486,-0.632 -0.143,-0.187 -0.286,-0.376 -0.437,-0.559 -0.131,-0.163 -0.269,-0.324 -0.408,-0.484 -0.216,-0.257 -0.433,-0.51 -0.658,-0.76 -0.06,-0.06 -0.104,-0.113 -0.156,-0.17 -0.299,-0.328 -0.607,-0.648 -0.921,-0.965 0,-0.01 -0.03,-0.02 -0.05,-0.03 -0.68,-0.677 -1.392,-1.326 -2.138,-1.942 -0.08,-0.07 -0.156,-0.123 -0.233,-0.185 -0.303,-0.246 -0.609,-0.491 -0.924,-0.727 -0.178,-0.133 -0.36,-0.26 -0.539,-0.39 -0.213,-0.152 -0.421,-0.305 -0.639,-0.453 -2.567,-1.749 -5.411,-3.125 -8.451,-4.05 -0.439,-0.137 -0.88,-0.261 -1.321,-0.377 0,0 -0.02,0 -0.03,0 -2.617,-0.685 -5.265,-1.016 -7.885,-1.013 z M 285.222,62.553 l 403.59204,0 -141.781,337.94999 -422.00504,0 c -5.895,0 -11.691,0.417 -17.37,1.209 L 231.522,93.091 c 0,-0.02 0.01,-0.03 0.02,-0.06 11.251,-18.917 31.377,-30.486 53.679,-30.486 z M 120.466,498.83499 c -8.657,0 -15.629,7.003 -15.629,15.631 0,8.626 6.972,15.627 15.629,15.627 l 425.87304,0 c 8.597,0 15.63,-7.001 15.63,-15.627 0,-8.628 -7.033,-15.631 -15.63,-15.631 l -425.87304,0 z m 0,57.984 c -8.657,0 -15.629,7 -15.629,15.627 0,8.627 6.972,15.63 15.629,15.63 l 425.87304,0 c 8.597,0 15.63,-7.003 15.63,-15.63 0,-8.627 -7.033,-15.627 -15.63,-15.627 l -425.87304,0 z" fill="#000000"></path></svg>