<svg xmlns="http://www.w3.org/2000/svg" xmlns:xlink="http://www.w3.org/1999/xlink" version="1.1" x="0px" y="0px" viewBox="0 0 100 100" enable-background="new 0 0 100 100" xml:space="preserve"><g><path d="M80.53,62.647c0-0.842-0.511-1.563-1.24-1.872c0.361-0.366,0.585-0.87,0.585-1.426c0-1.117-0.9-2.021-2.014-2.031   c0.095-0.235,0.147-0.492,0.147-0.763c0-1.122-0.909-2.03-2.031-2.03c-0.269,0-0.522,0.051-0.759,0.146   c-0.009-1.114-0.912-2.015-2.03-2.015c-0.554,0-1.055,0.223-1.423,0.583C71.457,52.51,70.736,52,69.896,52s-1.563,0.51-1.871,1.239   c-0.367-0.359-0.869-0.583-1.423-0.583c-1.116,0-2.021,0.9-2.031,2.015c-0.234-0.093-0.489-0.146-0.758-0.146   c-1.121,0-2.032,0.908-2.032,2.03c0,0.27,0.053,0.527,0.149,0.763c-1.113,0.01-2.014,0.914-2.014,2.03   c0,0.557,0.224,1.059,0.584,1.426c-0.728,0.31-1.239,1.031-1.239,1.87c0,0,0,0.001,0,0.003v0.001c0,0.842,0.512,1.563,1.239,1.871   c-0.36,0.365-0.584,0.869-0.584,1.425c0,1.117,0.9,2.022,2.014,2.031c-0.095,0.234-0.148,0.492-0.148,0.763   c0,1.122,0.91,2.032,2.032,2.032c0.268,0,0.524-0.054,0.759-0.146c0.008,0.89,0.588,1.645,1.393,1.909l-3.003,13.388l3.731-2.197   l1.966,3.478l1.236-5.509l1.626,6.938l2.004-3.722l3.56,2.29l-3.259-14.667c0.805-0.266,1.385-1.019,1.393-1.91   c0.234,0.093,0.49,0.147,0.758,0.147c1.123,0,2.032-0.911,2.032-2.033c0-0.27-0.053-0.526-0.149-0.762   c1.115-0.01,2.015-0.915,2.015-2.031c0-0.556-0.223-1.059-0.584-1.426C80.02,64.212,80.53,63.489,80.53,62.647z M69.897,69.256   c-3.649,0-6.609-2.958-6.609-6.61c0-3.648,2.96-6.607,6.609-6.607c3.648,0,6.608,2.959,6.608,6.607   C76.506,66.298,73.546,69.256,69.897,69.256z"></path><path d="M38.103,42.627c-0.307,0-0.58,0.271-0.58,0.578v1.616c0,0.319,0.26,0.578,0.58,0.578l23.797-0.001   c0.159,0.001,0.303-0.064,0.409-0.17c0.104-0.104,0.169-0.248,0.169-0.408v-1.615c0-0.154-0.061-0.301-0.169-0.41   c-0.108-0.107-0.255-0.168-0.409-0.168H38.103z"></path><path d="M39.89,48.639c-0.307,0-0.58,0.271-0.58,0.579v1.615c0,0.319,0.26,0.578,0.58,0.578l20.223-0.001   c0.158,0.001,0.303-0.063,0.408-0.17c0.105-0.104,0.17-0.248,0.17-0.408v-1.615c0-0.154-0.061-0.301-0.17-0.409   c-0.108-0.108-0.255-0.169-0.408-0.169H39.89z"></path><path d="M31.848,55.169c-0.139,0.001-0.252,0.114-0.254,0.254v4.468c0,0.142,0.113,0.253,0.254,0.253h4.638   c0.069,0,0.134-0.028,0.179-0.074c0.047-0.045,0.074-0.108,0.076-0.179l-0.002-4.468c0.002-0.14-0.112-0.254-0.253-0.253   L31.848,55.169z"></path><path d="M58.933,69.967c-1.223-0.92-2.017-2.384-2.017-4.022c0-0.243,0.018-0.484,0.051-0.722c-0.086-0.145-0.157-0.298-0.229-0.45   l-29.411-0.001V35.23l45.346-0.003v14.465c0.171-0.017,0.342-0.036,0.516-0.036c1.642,0,3.106,0.797,4.026,2.023   c1.129,0.286,2.104,0.956,2.785,1.861V31.564c0-0.979-0.383-1.897-1.074-2.59c-0.691-0.691-1.611-1.074-2.59-1.074H23.664   c-0.979,0-1.898,0.383-2.592,1.074C20.38,29.667,20,30.586,20,31.565v36.87c0,0.979,0.381,1.897,1.072,2.591   c0.693,0.692,1.613,1.073,2.592,1.073h36.422C59.544,71.499,59.137,70.775,58.933,69.967z"></path></g></svg>