<svg xmlns="http://www.w3.org/2000/svg" version="1" viewBox="0 0 24 24" enable-background="new 0 0 24 24" width="48" height="48">
    <path style="text-indent:0;text-align:start;line-height:normal;text-transform:none;block-progression:tb;-inkscape-font-specification:Bitstream Vera Sans" d="M 12 2 C 6.5 2 2 6.5 2 12 C 2 17.5 6.5 22 12 22 C 17.2 22 21.40625 18.1 21.90625 13 L 19.90625 13 C 19.40625 16.9 16 20 12 20 C 7.6 20 4 16.4 4 12 C 4 7.6 7.6 4 12 4 C 13.4 4 14.70625 4.4 15.90625 5 L 17.40625 3.5 C 15.80625 2.6 14 2 12 2 z M 20.5 4.875 L 11.1875 13.78125 L 7.5 10.09375 L 6.09375 11.5 L 10.5 15.90625 L 11.1875 16.59375 L 11.90625 15.90625 L 21.90625 6.3125 L 20.5 4.875 z" color="#000" overflow="visible" enable-background="accumulate" font-family="Bitstream Vera Sans"/>
</svg>