<svg version="1.1" id="Layer_1" xmlns="http://www.w3.org/2000/svg" xmlns:xlink="http://www.w3.org/1999/xlink" x="0px" y="0px" viewBox="0 0 30 30" style="enable-background:new 0 0 30 30;" xml:space="preserve" width="50" height="50">
<g>
	<g>
		<path style="fill:#F5CE85;" d="M1.566,26.6l1.005-3.256l8.783-8.783l-0.53-0.529c-0.585-0.584-0.585-1.536,0-2.121l0.753-0.753&#10;&#9;&#9;&#9;l-0.025-0.238C11.52,10.618,11.5,10.311,11.5,10c0-4.687,3.813-8.5,8.5-8.5l0.241,0.003c4.43,0.122,8.133,3.826,8.255,8.255&#10;&#9;&#9;&#9;c0.064,2.318-0.788,4.508-2.402,6.167C24.479,17.586,22.315,18.5,20,18.5c-0.311,0-0.617-0.019-0.92-0.052l-0.238-0.026&#10;&#9;&#9;&#9;l-0.752,0.754c-0.283,0.283-0.66,0.438-1.061,0.438c-0.401,0-0.778-0.156-1.062-0.439l-0.529-0.529L12.586,21.5H10.5v2.085&#10;&#9;&#9;&#9;L9.586,24.5H7.5v2.085l-0.851,0.851l-3.248,0.998L1.566,26.6z M20,4.5c-1.469,0-2.851,0.572-3.889,1.611l-0.354,0.354l7.777,7.778&#10;&#9;&#9;&#9;l0.354-0.354C24.928,12.851,25.5,11.469,25.5,10s-0.572-2.851-1.611-3.889C22.851,5.072,21.469,4.5,20,4.5z"/>
	</g>
	<g>
		<path style="fill:#967A44;" d="M20,2c0.075,0,0.152,0.001,0.227,0.003c4.169,0.115,7.654,3.6,7.77,7.769&#10;&#9;&#9;&#9;c0.06,2.182-0.743,4.244-2.262,5.805C24.216,17.14,22.179,18,20,18c-0.278,0-0.561-0.016-0.866-0.049L18.658,17.9l-0.338,0.338&#10;&#9;&#9;&#9;l-0.584,0.584c-0.189,0.189-0.44,0.293-0.707,0.293c-0.267,0-0.518-0.104-0.707-0.293l-0.176-0.176l-0.707-0.707l-0.707,0.707&#10;&#9;&#9;&#9;L12.378,21H11h-1v1v1.378L9.378,24H8H7v1v1.378l-0.616,0.616l-2.842,0.873l-1.409-1.408l0.879-2.85l8.341-8.341l0.707-0.707&#10;&#9;&#9;&#9;l-0.707-0.707l-0.175-0.175c-0.189-0.189-0.293-0.44-0.293-0.707c0-0.267,0.104-0.518,0.293-0.707l0.584-0.584l0.338-0.338&#10;&#9;&#9;&#9;l-0.051-0.476C12.016,10.561,12,10.278,12,10C12,5.589,15.589,2,20,2 M23.536,14.95l0.707-0.707C25.376,13.109,26,11.603,26,10&#10;&#9;&#9;&#9;s-0.624-3.109-1.757-4.243C23.109,4.624,21.603,4,20,4s-3.109,0.624-4.243,1.757L15.05,6.464l0.707,0.707l7.071,7.071&#10;&#9;&#9;&#9;L23.536,14.95 M20,1c-4.971,0-9,4.029-9,9c0,0.329,0.02,0.653,0.055,0.973l-0.584,0.584c-0.781,0.781-0.781,2.048,0,2.829&#10;&#9;&#9;&#9;l0.175,0.175L2.13,23.078L1,26.74L3.261,29l3.655-1.123L8,26.793V25h1.793L11,23.793V22h1.793l2.646-2.646l0.176,0.176&#10;&#9;&#9;&#9;c0.391,0.39,0.902,0.586,1.414,0.586c0.512,0,1.024-0.195,1.414-0.586l0.584-0.584C19.347,18.98,19.671,19,20,19&#10;&#9;&#9;&#9;c5.055,0,9.137-4.168,8.996-9.255c-0.13-4.696-4.045-8.611-8.742-8.741C20.17,1.001,20.085,1,20,1L20,1z M23.536,13.536&#10;&#9;&#9;&#9;l-7.071-7.071C17.441,5.488,18.72,5,20,5s2.559,0.488,3.536,1.464C25.488,8.417,25.488,11.583,23.536,13.536L23.536,13.536z"/>
	</g>
</g>
<rect x="2.74" y="19.75" transform="matrix(0.7071 -0.7071 0.7071 0.7071 -11.7561 12.1183)" style="fill:#DBB065;" width="12.021" height="1"/>
<rect x="12.896" y="13.809" transform="matrix(0.7071 -0.7071 0.7071 0.7071 -7.8175 14.3355)" style="fill:#967A44;" width="1" height="5.59"/>
</svg>