<svg xmlns="http://www.w3.org/2000/svg" width="50" height="50" viewBox="0 0 50 50">
    <path d="M 34 0 C 25.178 0 18 7.178 18 16 C 18 17.957624 18.353568 19.827248 19 21.5625 L 0 40.59375 L 0 46.59375 L 18.5625 28 L 20 29.4375 L 1 48.40625 L 2.59375 50 L 9.40625 50 L 13 46.40625 L 13 44 L 15.40625 44 L 19 40.40625 L 19 39 L 20.40625 39 L 23 36.40625 L 23 35 L 24.40625 35 L 28.4375 30.96875 C 30.175535 31.617546 32.038624 32 34 32 C 42.822 32 50 24.822 50 16 C 50 7.178 42.822 0 34 0 z M 34 5 C 36.938 5 39.70425 6.14175 41.78125 8.21875 C 43.85825 10.29575 45 13.062 45 16 C 45 18.938 43.85825 21.70425 41.78125 23.78125 L 41.0625 24.5 L 25.5 8.9375 L 26.21875 8.21875 C 28.29575 6.14175 31.062 5 34 5 z"/>
</svg>