<svg xmlns="http://www.w3.org/2000/svg" xmlns:xlink="http://www.w3.org/1999/xlink" version="1.1" x="0px" y="0px" viewBox="0 0 40 40" enable-background="new 0 0 40 40" xml:space="preserve"><path fill-rule="evenodd" clip-rule="evenodd" d="M23.1,20.2l1.1-1.2c1.9,0.6,4.1,0.2,5.6-1.3  c1.5-1.5,2.2-3.5,1.4-5.5l-3.8,3.8L24,12.5l3.8-3.8c-2.1-0.8-4.1-0.2-5.7,1.3c-1.5,1.5-1.9,3.6-1.4,5.5l-1.9,1.9l-3.5-3.5l-0.7-2.1  l-4.2-2.8l-2.1,2.1l2.8,4.3l2.1,0.7l3.5,3.5l-7.7,7.7c-1,1-1,2.6,0,3.6c1,1,2.6,1,3.5,0l7-7l6.4,6.5l3.5-3.5L23.1,20.2z M12.3,29.7  c-0.6,0.6-1.5,0.6-2.1,0c-0.6-0.6-0.6-1.5,0-2.1c0.6-0.6,1.5-0.6,2.1,0C12.8,28.2,12.8,29.1,12.3,29.7z M26.7,30.9c1,1,2.6,1,3.5,0  c1-1,1-2.6,0-3.5L26.7,30.9z"></path></svg>